<svg xmlns="http://www.w3.org/2000/svg" viewBox="0 0 391.88 214.75"><defs><style>.a{fill:#fff;}</style></defs><title>bg_multitouch</title><rect class="a" x="43.33" y="8.35" width="0.85" height="0.9"/><polygon class="a" points="61.16 8.35 61.16 9.25 61.61 9.25 62.06 9.25 62.06 8.35 61.61 8.35 61.16 8.35"/><rect class="a" x="79.04" y="8.35" width="0.85" height="0.9"/><polygon class="a" points="96.88 8.35 96.88 9.25 97.33 9.25 97.78 9.25 97.78 8.35 97.33 8.35 96.88 8.35"/><rect class="a" x="114.76" y="8.35" width="0.85" height="0.9"/><polygon class="a" points="132.59 8.35 132.59 9.25 133.04 9.25 133.49 9.25 133.49 8.35 133.04 8.35 132.59 8.35"/><rect class="a" x="150.47" y="8.35" width="0.85" height="0.9"/><polygon class="a" points="168.31 8.35 168.31 9.25 168.76 9.25 169.21 9.25 169.21 8.35 168.76 8.35 168.31 8.35"/><rect class="a" x="186.19" y="8.35" width="0.85" height="0.9"/><polygon class="a" points="204.02 8.35 204.02 9.25 204.47 9.25 204.92 9.25 204.92 8.35 204.47 8.35 204.02 8.35"/><rect class="a" x="221.9" y="8.35" width="0.85" height="0.9"/><polygon class="a" points="239.74 8.35 239.74 9.25 240.19 9.25 240.63 9.25 240.63 8.35 240.19 8.35 239.74 8.35"/><rect class="a" x="257.62" y="8.35" width="0.85" height="0.9"/><polygon class="a" points="275.45 8.35 275.45 9.25 275.9 9.25 276.35 9.25 276.35 8.35 275.9 8.35 275.45 8.35"/><rect class="a" x="293.33" y="8.35" width="0.85" height="0.9"/><polygon class="a" points="311.17 8.35 311.17 9.25 311.62 9.25 312.06 9.25 312.06 8.35 311.62 8.35 311.17 8.35"/><rect class="a" x="329.05" y="8.35" width="0.85" height="0.9"/><polygon class="a" points="346.88 8.35 346.88 9.25 347.33 9.25 347.78 9.25 347.78 8.35 347.33 8.35 346.88 8.35"/><rect class="a" x="364.76" y="8.35" width="0.85" height="0.9"/><polygon class="a" points="382.59 8.35 382.59 9.25 383.04 9.25 383.49 9.25 383.49 8.35 383.04 8.35 382.59 8.35"/><rect class="a" x="34.74" y="26.21" width="0.85" height="0.9"/><polygon class="a" points="52.57 26.21 52.57 27.11 53.02 27.11 53.47 27.11 53.47 26.21 53.02 26.21 52.57 26.21"/><rect class="a" x="70.45" y="26.21" width="0.85" height="0.9"/><polygon class="a" points="88.28 26.21 88.28 27.11 88.73 27.11 89.18 27.11 89.18 26.21 88.73 26.21 88.28 26.21"/><rect class="a" x="106.17" y="26.21" width="0.85" height="0.9"/><polygon class="a" points="124 26.21 124 27.11 124.45 27.11 124.9 27.11 124.9 26.21 124.45 26.21 124 26.21"/><rect class="a" x="141.88" y="26.21" width="0.85" height="0.9"/><polygon class="a" points="159.71 26.21 159.71 27.11 160.16 27.11 160.61 27.11 160.61 26.21 160.16 26.21 159.71 26.21"/><rect class="a" x="177.6" y="26.21" width="0.85" height="0.9"/><polygon class="a" points="195.43 26.21 195.43 27.11 195.88 27.11 196.33 27.11 196.33 26.21 195.88 26.21 195.43 26.21"/><rect class="a" x="213.31" y="26.21" width="0.85" height="0.9"/><polygon class="a" points="231.14 26.21 231.14 27.11 231.59 27.11 232.04 27.11 232.04 26.21 231.59 26.21 231.14 26.21"/><rect class="a" x="249.03" y="26.21" width="0.85" height="0.9"/><polygon class="a" points="266.86 26.21 266.86 27.11 267.31 27.11 267.76 27.11 267.76 26.21 267.31 26.21 266.86 26.21"/><rect class="a" x="284.74" y="26.21" width="0.85" height="0.9"/><polygon class="a" points="302.57 26.21 302.57 27.11 303.02 27.11 303.47 27.11 303.47 26.21 303.02 26.21 302.57 26.21"/><rect class="a" x="320.45" y="26.21" width="0.85" height="0.9"/><polygon class="a" points="338.29 26.21 338.29 27.11 338.74 27.11 339.19 27.11 339.19 26.21 338.74 26.21 338.29 26.21"/><rect class="a" x="356.17" y="26.21" width="0.85" height="0.9"/><polygon class="a" points="374 26.21 374 27.11 374.45 27.11 374.9 27.11 374.9 26.21 374.45 26.21 374 26.21"/><rect class="a" x="43.33" y="44.07" width="0.85" height="0.9"/><polygon class="a" points="61.16 44.07 61.16 44.97 61.61 44.97 62.06 44.97 62.06 44.07 61.61 44.07 61.16 44.07"/><rect class="a" x="79.04" y="44.07" width="0.85" height="0.9"/><polygon class="a" points="96.88 44.07 96.88 44.97 97.33 44.97 97.78 44.97 97.78 44.07 97.33 44.07 96.88 44.07"/><rect class="a" x="114.76" y="44.07" width="0.85" height="0.9"/><polygon class="a" points="132.59 44.07 132.59 44.97 133.04 44.97 133.49 44.97 133.49 44.07 133.04 44.07 132.59 44.07"/><rect class="a" x="150.47" y="44.07" width="0.85" height="0.9"/><polygon class="a" points="168.31 44.07 168.31 44.97 168.76 44.97 169.21 44.97 169.21 44.07 168.76 44.07 168.31 44.07"/><rect class="a" x="186.19" y="44.07" width="0.85" height="0.9"/><polygon class="a" points="204.02 44.07 204.02 44.97 204.47 44.97 204.92 44.97 204.92 44.07 204.47 44.07 204.02 44.07"/><rect class="a" x="221.9" y="44.07" width="0.85" height="0.9"/><polygon class="a" points="239.74 44.07 239.74 44.97 240.19 44.97 240.63 44.97 240.63 44.07 240.19 44.07 239.74 44.07"/><rect class="a" x="257.62" y="44.07" width="0.85" height="0.9"/><polygon class="a" points="275.45 44.07 275.45 44.97 275.9 44.97 276.35 44.97 276.35 44.07 275.9 44.07 275.45 44.07"/><rect class="a" x="293.33" y="44.07" width="0.85" height="0.9"/><polygon class="a" points="311.17 44.07 311.17 44.97 311.62 44.97 312.06 44.97 312.06 44.07 311.62 44.07 311.17 44.07"/><rect class="a" x="329.05" y="44.07" width="0.85" height="0.9"/><polygon class="a" points="346.88 44.07 346.88 44.97 347.33 44.97 347.78 44.97 347.78 44.07 347.33 44.07 346.88 44.07"/><rect class="a" x="364.76" y="44.07" width="0.85" height="0.9"/><polygon class="a" points="382.59 44.07 382.59 44.97 383.04 44.97 383.49 44.97 383.49 44.07 383.04 44.07 382.59 44.07"/><rect class="a" x="34.74" y="61.93" width="0.85" height="0.9"/><polygon class="a" points="52.57 61.92 52.57 62.83 53.02 62.83 53.47 62.83 53.47 61.92 53.02 61.92 52.57 61.92"/><rect class="a" x="70.45" y="61.93" width="0.85" height="0.9"/><polygon class="a" points="88.28 61.92 88.28 62.83 88.73 62.83 89.18 62.83 89.18 61.92 88.73 61.92 88.28 61.92"/><rect class="a" x="106.17" y="61.93" width="0.85" height="0.9"/><polygon class="a" points="124 61.92 124 62.83 124.45 62.83 124.9 62.83 124.9 61.92 124.45 61.92 124 61.92"/><rect class="a" x="141.88" y="61.93" width="0.85" height="0.9"/><polygon class="a" points="159.71 61.92 159.71 62.83 160.16 62.83 160.61 62.83 160.61 61.92 160.16 61.92 159.71 61.92"/><rect class="a" x="177.6" y="61.93" width="0.85" height="0.9"/><polygon class="a" points="195.43 61.92 195.43 62.83 195.88 62.83 196.33 62.83 196.33 61.92 195.88 61.92 195.43 61.92"/><rect class="a" x="213.31" y="61.93" width="0.85" height="0.9"/><polygon class="a" points="231.14 61.92 231.14 62.83 231.59 62.83 232.04 62.83 232.04 61.92 231.59 61.92 231.14 61.92"/><rect class="a" x="249.03" y="61.93" width="0.85" height="0.9"/><polygon class="a" points="266.86 61.92 266.86 62.83 267.31 62.83 267.76 62.83 267.76 61.92 267.31 61.92 266.86 61.92"/><rect class="a" x="284.74" y="61.93" width="0.85" height="0.9"/><polygon class="a" points="302.57 61.92 302.57 62.83 303.02 62.83 303.47 62.83 303.47 61.92 303.02 61.92 302.57 61.92"/><rect class="a" x="320.45" y="61.93" width="0.85" height="0.9"/><polygon class="a" points="338.29 61.92 338.29 62.83 338.74 62.83 339.19 62.83 339.19 61.92 338.74 61.92 338.29 61.92"/><rect class="a" x="356.17" y="61.93" width="0.85" height="0.9"/><polygon class="a" points="374 61.92 374 62.83 374.45 62.83 374.9 62.83 374.9 61.92 374.45 61.92 374 61.92"/><rect class="a" x="43.33" y="79.78" width="0.85" height="0.9"/><polygon class="a" points="61.16 79.78 61.16 80.68 61.61 80.68 62.06 80.68 62.06 79.78 61.61 79.78 61.16 79.78"/><rect class="a" x="79.04" y="79.78" width="0.85" height="0.9"/><polygon class="a" points="96.88 79.78 96.88 80.68 97.33 80.68 97.78 80.68 97.78 79.78 97.33 79.78 96.88 79.78"/><rect class="a" x="114.76" y="79.78" width="0.85" height="0.9"/><polygon class="a" points="132.59 79.78 132.59 80.68 133.04 80.68 133.49 80.68 133.49 79.78 133.04 79.78 132.59 79.78"/><rect class="a" x="150.47" y="79.78" width="0.85" height="0.9"/><polygon class="a" points="168.31 79.78 168.31 80.68 168.76 80.68 169.21 80.68 169.21 79.78 168.76 79.78 168.31 79.78"/><rect class="a" x="186.19" y="79.78" width="0.85" height="0.9"/><polygon class="a" points="204.02 79.78 204.02 80.68 204.47 80.68 204.92 80.68 204.92 79.78 204.47 79.78 204.02 79.78"/><rect class="a" x="221.9" y="79.78" width="0.85" height="0.9"/><polygon class="a" points="239.74 79.78 239.74 80.68 240.19 80.68 240.63 80.68 240.63 79.78 240.19 79.78 239.74 79.78"/><rect class="a" x="257.62" y="79.78" width="0.85" height="0.9"/><polygon class="a" points="275.45 79.78 275.45 80.68 275.9 80.68 276.35 80.68 276.35 79.78 275.9 79.78 275.45 79.78"/><rect class="a" x="293.33" y="79.78" width="0.85" height="0.9"/><polygon class="a" points="311.17 79.78 311.17 80.68 311.62 80.68 312.06 80.68 312.06 79.78 311.62 79.78 311.17 79.78"/><rect class="a" x="329.05" y="79.78" width="0.85" height="0.9"/><polygon class="a" points="346.88 79.78 346.88 80.68 347.33 80.68 347.78 80.68 347.78 79.78 347.33 79.78 346.88 79.78"/><rect class="a" x="364.76" y="79.78" width="0.85" height="0.9"/><polygon class="a" points="382.59 79.78 382.59 80.68 383.04 80.68 383.49 80.68 383.49 79.78 383.04 79.78 382.59 79.78"/><rect class="a" x="34.74" y="97.64" width="0.85" height="0.9"/><polygon class="a" points="52.57 97.64 52.57 98.54 53.02 98.54 53.47 98.54 53.47 97.64 53.02 97.64 52.57 97.64"/><rect class="a" x="70.45" y="97.64" width="0.85" height="0.9"/><polygon class="a" points="88.28 97.64 88.28 98.54 88.73 98.54 89.18 98.54 89.18 97.64 88.73 97.64 88.28 97.64"/><rect class="a" x="106.17" y="97.64" width="0.85" height="0.9"/><polygon class="a" points="124 97.64 124 98.54 124.45 98.54 124.9 98.54 124.9 97.64 124.45 97.64 124 97.64"/><rect class="a" x="141.88" y="97.64" width="0.85" height="0.9"/><polygon class="a" points="159.71 97.64 159.71 98.54 160.16 98.54 160.61 98.54 160.61 97.64 160.16 97.64 159.71 97.64"/><rect class="a" x="177.6" y="97.64" width="0.85" height="0.9"/><polygon class="a" points="195.43 97.64 195.43 98.54 195.88 98.54 196.33 98.54 196.33 97.64 195.88 97.64 195.43 97.64"/><rect class="a" x="213.31" y="97.64" width="0.85" height="0.9"/><polygon class="a" points="231.14 97.64 231.14 98.54 231.59 98.54 232.04 98.54 232.04 97.64 231.59 97.64 231.14 97.64"/><rect class="a" x="249.03" y="97.64" width="0.85" height="0.9"/><polygon class="a" points="266.86 97.64 266.86 98.54 267.31 98.54 267.76 98.54 267.76 97.64 267.31 97.64 266.86 97.64"/><rect class="a" x="284.74" y="97.64" width="0.85" height="0.9"/><polygon class="a" points="302.57 97.64 302.57 98.54 303.02 98.54 303.47 98.54 303.47 97.64 303.02 97.64 302.57 97.64"/><rect class="a" x="320.45" y="97.64" width="0.85" height="0.9"/><polygon class="a" points="338.29 97.64 338.29 98.54 338.74 98.54 339.19 98.54 339.19 97.64 338.74 97.64 338.29 97.64"/><rect class="a" x="356.17" y="97.64" width="0.85" height="0.9"/><polygon class="a" points="374 97.64 374 98.54 374.45 98.54 374.9 98.54 374.9 97.64 374.45 97.64 374 97.64"/><rect class="a" x="43.33" y="115.5" width="0.85" height="0.9"/><polygon class="a" points="61.16 115.5 61.16 116.4 61.61 116.4 62.06 116.4 62.06 115.5 61.61 115.5 61.16 115.5"/><rect class="a" x="79.04" y="115.5" width="0.85" height="0.9"/><polygon class="a" points="96.88 115.5 96.88 116.4 97.33 116.4 97.78 116.4 97.78 115.5 97.33 115.5 96.88 115.5"/><rect class="a" x="114.76" y="115.5" width="0.85" height="0.9"/><polygon class="a" points="132.59 115.5 132.59 116.4 133.04 116.4 133.49 116.4 133.49 115.5 133.04 115.5 132.59 115.5"/><rect class="a" x="150.47" y="115.5" width="0.85" height="0.9"/><polygon class="a" points="168.31 115.5 168.31 116.4 168.76 116.4 169.21 116.4 169.21 115.5 168.76 115.5 168.31 115.5"/><rect class="a" x="186.19" y="115.5" width="0.85" height="0.9"/><polygon class="a" points="204.02 115.5 204.02 116.4 204.47 116.4 204.92 116.4 204.92 115.5 204.47 115.5 204.02 115.5"/><rect class="a" x="221.9" y="115.5" width="0.85" height="0.9"/><polygon class="a" points="239.74 115.5 239.74 116.4 240.19 116.4 240.63 116.4 240.63 115.5 240.19 115.5 239.74 115.5"/><rect class="a" x="257.62" y="115.5" width="0.85" height="0.9"/><polygon class="a" points="275.45 115.5 275.45 116.4 275.9 116.4 276.35 116.4 276.35 115.5 275.9 115.5 275.45 115.5"/><rect class="a" x="293.33" y="115.5" width="0.85" height="0.9"/><polygon class="a" points="311.17 115.5 311.17 116.4 311.62 116.4 312.06 116.4 312.06 115.5 311.62 115.5 311.17 115.5"/><rect class="a" x="329.05" y="115.5" width="0.85" height="0.9"/><polygon class="a" points="346.88 115.5 346.88 116.4 347.33 116.4 347.78 116.4 347.78 115.5 347.33 115.5 346.88 115.5"/><rect class="a" x="364.76" y="115.5" width="0.85" height="0.9"/><polygon class="a" points="382.59 115.5 382.59 116.4 383.04 116.4 383.49 116.4 383.49 115.5 383.04 115.5 382.59 115.5"/><rect class="a" x="34.74" y="133.35" width="0.85" height="0.9"/><polygon class="a" points="52.57 133.35 52.57 134.25 53.02 134.25 53.47 134.25 53.47 133.35 53.02 133.35 52.57 133.35"/><rect class="a" x="70.45" y="133.35" width="0.85" height="0.9"/><polygon class="a" points="88.28 133.35 88.28 134.25 88.73 134.25 89.18 134.25 89.18 133.35 88.73 133.35 88.28 133.35"/><rect class="a" x="106.17" y="133.35" width="0.85" height="0.9"/><polygon class="a" points="124 133.35 124 134.25 124.45 134.25 124.9 134.25 124.9 133.35 124.45 133.35 124 133.35"/><rect class="a" x="141.88" y="133.35" width="0.85" height="0.9"/><polygon class="a" points="159.71 133.35 159.71 134.25 160.16 134.25 160.61 134.25 160.61 133.35 160.16 133.35 159.71 133.35"/><rect class="a" x="177.6" y="133.35" width="0.85" height="0.9"/><polygon class="a" points="195.43 133.35 195.43 134.25 195.88 134.25 196.33 134.25 196.33 133.35 195.88 133.35 195.43 133.35"/><rect class="a" x="213.31" y="133.35" width="0.85" height="0.9"/><polygon class="a" points="231.14 133.35 231.14 134.25 231.59 134.25 232.04 134.25 232.04 133.35 231.59 133.35 231.14 133.35"/><rect class="a" x="249.03" y="133.35" width="0.85" height="0.9"/><polygon class="a" points="266.86 133.35 266.86 134.25 267.31 134.25 267.76 134.25 267.76 133.35 267.31 133.35 266.86 133.35"/><rect class="a" x="284.74" y="133.35" width="0.85" height="0.9"/><polygon class="a" points="302.57 133.35 302.57 134.25 303.02 134.25 303.47 134.25 303.47 133.35 303.02 133.35 302.57 133.35"/><rect class="a" x="320.45" y="133.35" width="0.85" height="0.9"/><polygon class="a" points="338.29 133.35 338.29 134.25 338.74 134.25 339.19 134.25 339.19 133.35 338.74 133.35 338.29 133.35"/><rect class="a" x="356.17" y="133.35" width="0.85" height="0.9"/><polygon class="a" points="374 133.35 374 134.25 374.45 134.25 374.9 134.25 374.9 133.35 374.45 133.35 374 133.35"/><rect class="a" x="43.33" y="151.21" width="0.85" height="0.9"/><polygon class="a" points="61.16 151.21 61.16 152.11 61.61 152.11 62.06 152.11 62.06 151.21 61.61 151.21 61.16 151.21"/><rect class="a" x="79.04" y="151.21" width="0.85" height="0.9"/><polygon class="a" points="96.88 151.21 96.88 152.11 97.33 152.11 97.78 152.11 97.78 151.21 97.33 151.21 96.88 151.21"/><rect class="a" x="114.76" y="151.21" width="0.85" height="0.9"/><polygon class="a" points="132.59 151.21 132.59 152.11 133.04 152.11 133.49 152.11 133.49 151.21 133.04 151.21 132.59 151.21"/><rect class="a" x="150.47" y="151.21" width="0.85" height="0.9"/><polygon class="a" points="168.31 151.21 168.31 152.11 168.76 152.11 169.21 152.11 169.21 151.21 168.76 151.21 168.31 151.21"/><rect class="a" x="186.19" y="151.21" width="0.85" height="0.9"/><polygon class="a" points="204.02 151.21 204.02 152.11 204.47 152.11 204.92 152.11 204.92 151.21 204.47 151.21 204.02 151.21"/><rect class="a" x="221.9" y="151.21" width="0.85" height="0.9"/><polygon class="a" points="239.74 151.21 239.74 152.11 240.19 152.11 240.63 152.11 240.63 151.21 240.19 151.21 239.74 151.21"/><rect class="a" x="257.62" y="151.21" width="0.85" height="0.9"/><polygon class="a" points="275.45 151.21 275.45 152.11 275.9 152.11 276.35 152.11 276.35 151.21 275.9 151.21 275.45 151.21"/><rect class="a" x="293.33" y="151.21" width="0.85" height="0.9"/><polygon class="a" points="311.17 151.21 311.17 152.11 311.62 152.11 312.06 152.11 312.06 151.21 311.62 151.21 311.17 151.21"/><rect class="a" x="329.05" y="151.21" width="0.85" height="0.9"/><polygon class="a" points="346.88 151.21 346.88 152.11 347.33 152.11 347.78 152.11 347.78 151.21 347.33 151.21 346.88 151.21"/><rect class="a" x="364.76" y="151.21" width="0.85" height="0.9"/><polygon class="a" points="382.59 151.21 382.59 152.11 383.04 152.11 383.49 152.11 383.49 151.21 383.04 151.21 382.59 151.21"/><rect class="a" x="34.74" y="169.07" width="0.85" height="0.9"/><polygon class="a" points="52.57 169.07 52.57 169.97 53.02 169.97 53.47 169.97 53.47 169.07 53.02 169.07 52.57 169.07"/><rect class="a" x="70.45" y="169.07" width="0.85" height="0.9"/><polygon class="a" points="88.28 169.07 88.28 169.97 88.73 169.97 89.18 169.97 89.18 169.07 88.73 169.07 88.28 169.07"/><rect class="a" x="106.17" y="169.07" width="0.85" height="0.9"/><polygon class="a" points="124 169.07 124 169.97 124.45 169.97 124.9 169.97 124.9 169.07 124.45 169.07 124 169.07"/><rect class="a" x="141.88" y="169.07" width="0.85" height="0.9"/><polygon class="a" points="159.71 169.07 159.71 169.97 160.16 169.97 160.61 169.97 160.61 169.07 160.16 169.07 159.71 169.07"/><rect class="a" x="177.6" y="169.07" width="0.85" height="0.9"/><polygon class="a" points="195.43 169.07 195.43 169.97 195.88 169.97 196.33 169.97 196.33 169.07 195.88 169.07 195.43 169.07"/><rect class="a" x="213.31" y="169.07" width="0.85" height="0.9"/><polygon class="a" points="231.14 169.07 231.14 169.97 231.59 169.97 232.04 169.97 232.04 169.07 231.59 169.07 231.14 169.07"/><rect class="a" x="249.03" y="169.07" width="0.85" height="0.9"/><polygon class="a" points="266.86 169.07 266.86 169.97 267.31 169.97 267.76 169.97 267.76 169.07 267.31 169.07 266.86 169.07"/><rect class="a" x="284.74" y="169.07" width="0.85" height="0.9"/><polygon class="a" points="302.57 169.07 302.57 169.97 303.02 169.97 303.47 169.97 303.47 169.07 303.02 169.07 302.57 169.07"/><rect class="a" x="320.45" y="169.07" width="0.85" height="0.9"/><polygon class="a" points="338.29 169.07 338.29 169.97 338.74 169.97 339.19 169.97 339.19 169.07 338.74 169.07 338.29 169.07"/><rect class="a" x="356.17" y="169.07" width="0.85" height="0.9"/><polygon class="a" points="374 169.07 374 169.97 374.45 169.97 374.9 169.97 374.9 169.07 374.45 169.07 374 169.07"/><rect class="a" x="17.3" y="204.78" width="0.45" height="0.9"/><rect class="a" x="34.74" y="204.78" width="0.85" height="0.9"/><polygon class="a" points="52.57 204.78 52.57 205.68 53.02 205.68 53.47 205.68 53.47 204.78 53.02 204.78 52.57 204.78"/><rect class="a" x="70.45" y="204.78" width="0.85" height="0.9"/><polygon class="a" points="88.28 204.78 88.28 205.68 88.73 205.68 89.18 205.68 89.18 204.78 88.73 204.78 88.28 204.78"/><rect class="a" x="106.17" y="204.78" width="0.85" height="0.9"/><polygon class="a" points="124 204.78 124 205.68 124.45 205.68 124.9 205.68 124.9 204.78 124.45 204.78 124 204.78"/><rect class="a" x="141.88" y="204.78" width="0.85" height="0.9"/><polygon class="a" points="159.71 204.78 159.71 205.68 160.16 205.68 160.61 205.68 160.61 204.78 160.16 204.78 159.71 204.78"/><rect class="a" x="177.6" y="204.78" width="0.85" height="0.9"/><polygon class="a" points="195.43 204.78 195.43 205.68 195.88 205.68 196.33 205.68 196.33 204.78 195.88 204.78 195.43 204.78"/><rect class="a" x="213.31" y="204.78" width="0.85" height="0.9"/><polygon class="a" points="231.14 204.78 231.14 205.68 231.59 205.68 232.04 205.68 232.04 204.78 231.59 204.78 231.14 204.78"/><rect class="a" x="249.03" y="204.78" width="0.85" height="0.9"/><polygon class="a" points="266.86 204.78 266.86 205.68 267.31 205.68 267.76 205.68 267.76 204.78 267.31 204.78 266.86 204.78"/><rect class="a" x="284.74" y="204.78" width="0.85" height="0.9"/><polygon class="a" points="302.57 204.78 302.57 205.68 303.02 205.68 303.47 205.68 303.47 204.78 303.02 204.78 302.57 204.78"/><rect class="a" x="320.45" y="204.78" width="0.85" height="0.9"/><polygon class="a" points="338.29 204.78 338.29 205.68 338.74 205.68 339.19 205.68 339.19 204.78 338.74 204.78 338.29 204.78"/><rect class="a" x="356.17" y="204.78" width="0.85" height="0.9"/><polygon class="a" points="374 204.78 374 205.68 374.45 205.68 374.9 205.68 374.9 204.78 374.45 204.78 374 204.78"/><rect class="a" x="43.33" y="186.93" width="0.85" height="0.9"/><polygon class="a" points="61.16 186.93 61.16 187.83 61.61 187.83 62.06 187.83 62.06 186.93 61.61 186.93 61.16 186.93"/><rect class="a" x="79.04" y="186.93" width="0.85" height="0.9"/><polygon class="a" points="96.88 186.93 96.88 187.83 97.33 187.83 97.78 187.83 97.78 186.93 97.33 186.93 96.88 186.93"/><rect class="a" x="114.76" y="186.93" width="0.85" height="0.9"/><polygon class="a" points="132.59 186.93 132.59 187.83 133.04 187.83 133.49 187.83 133.49 186.93 133.04 186.93 132.59 186.93"/><rect class="a" x="150.47" y="186.93" width="0.85" height="0.9"/><polygon class="a" points="168.31 186.93 168.31 187.83 168.76 187.83 169.21 187.83 169.21 186.93 168.76 186.93 168.31 186.93"/><rect class="a" x="186.19" y="186.93" width="0.85" height="0.9"/><polygon class="a" points="204.02 186.93 204.02 187.83 204.47 187.83 204.92 187.83 204.92 186.93 204.47 186.93 204.02 186.93"/><rect class="a" x="221.9" y="186.93" width="0.85" height="0.9"/><polygon class="a" points="239.74 186.93 239.74 187.83 240.19 187.83 240.63 187.83 240.63 186.93 240.19 186.93 239.74 186.93"/><rect class="a" x="257.62" y="186.93" width="0.85" height="0.9"/><polygon class="a" points="275.45 186.93 275.45 187.83 275.9 187.83 276.35 187.83 276.35 186.93 275.9 186.93 275.45 186.93"/><rect class="a" x="293.33" y="186.93" width="0.85" height="0.9"/><polygon class="a" points="311.17 186.93 311.17 187.83 311.62 187.83 312.06 187.83 312.06 186.93 311.62 186.93 311.17 186.93"/><rect class="a" x="329.05" y="186.93" width="0.85" height="0.9"/><polygon class="a" points="346.88 186.93 346.88 187.83 347.33 187.83 347.78 187.83 347.78 186.93 347.33 186.93 346.88 186.93"/><rect class="a" x="364.76" y="186.93" width="0.85" height="0.9"/><polygon class="a" points="382.59 186.93 382.59 187.83 383.04 187.83 383.49 187.83 383.49 186.93 383.04 186.93 382.59 186.93"/><rect class="a" x="7.62" y="8.35" width="0.85" height="0.9"/><polygon class="a" points="25.45 8.35 25.45 9.25 25.9 9.25 26.35 9.25 26.35 8.35 25.9 8.35 25.45 8.35"/><polygon class="a" points="16.86 26.21 16.86 27.11 17.3 27.11 17.75 27.11 17.75 26.21 17.3 26.21 16.86 26.21"/><rect class="a" x="7.62" y="44.07" width="0.85" height="0.9"/><polygon class="a" points="25.45 44.07 25.45 44.97 25.9 44.97 26.35 44.97 26.35 44.07 25.9 44.07 25.45 44.07"/><polygon class="a" points="16.86 61.92 16.86 62.83 17.3 62.83 17.75 62.83 17.75 61.92 17.3 61.92 16.86 61.92"/><rect class="a" x="7.62" y="79.78" width="0.85" height="0.9"/><polygon class="a" points="25.45 79.78 25.45 80.68 25.9 80.68 26.35 80.68 26.35 79.78 25.9 79.78 25.45 79.78"/><polygon class="a" points="16.86 97.64 16.86 98.54 17.3 98.54 17.75 98.54 17.75 97.64 17.3 97.64 16.86 97.64"/><rect class="a" x="7.62" y="115.5" width="0.85" height="0.9"/><polygon class="a" points="25.45 115.5 25.45 116.4 25.9 116.4 26.35 116.4 26.35 115.5 25.9 115.5 25.45 115.5"/><polygon class="a" points="16.86 133.35 16.86 134.25 17.3 134.25 17.75 134.25 17.75 133.35 17.3 133.35 16.86 133.35"/><rect class="a" x="7.62" y="151.21" width="0.85" height="0.9"/><polygon class="a" points="25.45 151.21 25.45 152.11 25.9 152.11 26.35 152.11 26.35 151.21 25.9 151.21 25.45 151.21"/><polygon class="a" points="16.86 169.07 16.86 169.97 17.3 169.97 17.75 169.97 17.75 169.07 17.3 169.07 16.86 169.07"/><rect class="a" x="7.62" y="186.93" width="0.85" height="0.9"/><polygon class="a" points="25.45 186.93 25.45 187.83 25.9 187.83 26.35 187.83 26.35 186.93 25.9 186.93 25.45 186.93"/></svg>