<svg xmlns="http://www.w3.org/2000/svg" viewBox="0 0 392.88 214.75"><defs><style>.a{fill:#fff;}</style></defs><title>bg_multitouch</title><rect class="a" x="0.01" y="106.88" width="0.45" height="0.9"/><rect class="a" x="11.57" y="106.88" width="0.74" height="0.9"/><rect class="a" x="23.43" y="106.88" width="0.74" height="0.9"/><polygon class="a" points="35.28 106.88 35.28 106.92 35.2 106.92 35.2 107.37 35.2 107.82 36.1 107.82 36.1 107.78 36.18 107.78 36.18 106.88 35.73 106.88 35.28 106.88"/><rect class="a" x="59.14" y="106.88" width="0.74" height="0.9"/><rect class="a" x="47.29" y="106.88" width="0.74" height="0.9"/><polygon class="a" points="70.99 106.88 70.99 106.92 70.95 106.92 70.95 107.37 70.95 107.82 71.85 107.82 71.85 107.78 71.89 107.78 71.89 106.88 71.44 106.88 70.99 106.88"/><rect class="a" x="83" y="106.88" width="0.74" height="0.9"/><rect class="a" x="94.86" y="106.88" width="0.74" height="0.9"/><polygon class="a" points="107.61 106.88 107.16 106.88 106.71 106.88 106.71 107.78 106.71 107.78 106.71 107.82 107.61 107.82 107.61 107.37 107.61 106.92 107.61 106.92 107.61 106.88"/><rect class="a" x="130.57" y="106.88" width="0.74" height="0.9"/><rect class="a" x="118.72" y="106.88" width="0.74" height="0.9"/><polygon class="a" points="143.32 106.88 142.87 106.88 142.42 106.88 142.42 107.78 142.47 107.78 142.47 107.82 143.37 107.82 143.37 107.37 143.37 106.92 143.32 106.92 143.32 106.88"/><rect class="a" x="154.43" y="106.88" width="0.74" height="0.9"/><rect class="a" x="166.28" y="106.88" width="0.74" height="0.9"/><polygon class="a" points="179.04 106.88 178.59 106.88 178.14 106.88 178.14 107.78 178.22 107.78 178.22 107.82 179.12 107.82 179.12 107.37 179.12 106.92 179.04 106.92 179.04 106.88"/><rect class="a" x="202" y="106.88" width="0.74" height="0.9"/><rect class="a" x="190.15" y="106.88" width="0.74" height="0.9"/><polygon class="a" points="213.85 106.88 213.85 106.92 213.77 106.92 213.77 107.37 213.77 107.82 214.67 107.82 214.67 107.78 214.75 107.78 214.75 106.88 214.3 106.88 213.85 106.88"/><rect class="a" x="225.86" y="106.88" width="0.74" height="0.9"/><rect class="a" x="237.71" y="106.88" width="0.74" height="0.9"/><polygon class="a" points="249.57 106.88 249.57 106.92 249.53 106.92 249.53 107.37 249.53 107.82 250.43 107.82 250.43 107.78 250.47 107.78 250.47 106.88 250.02 106.88 249.57 106.88"/><rect class="a" x="261.58" y="106.88" width="0.74" height="0.9"/><rect class="a" x="273.43" y="106.88" width="0.74" height="0.9"/><polygon class="a" points="285.28 106.88 285.28 106.92 285.28 107.37 285.28 107.78 285.28 107.82 286.18 107.82 286.18 107.78 286.18 107.37 286.18 106.92 286.18 106.88 285.73 106.88 285.28 106.88"/><rect class="a" x="297.29" y="106.88" width="0.74" height="0.9"/><rect class="a" x="309.14" y="106.88" width="0.74" height="0.9"/><polygon class="a" points="321.89 106.88 321.44 106.88 321 106.88 321 107.78 321.04 107.78 321.04 107.82 321.94 107.82 321.94 107.37 321.94 106.92 321.89 106.92 321.89 106.88"/><rect class="a" x="344.86" y="106.88" width="0.74" height="0.9"/><rect class="a" x="333.01" y="106.88" width="0.74" height="0.9"/><polygon class="a" points="357.61 106.88 357.16 106.88 356.71 106.88 356.71 107.78 356.79 107.78 356.79 107.82 357.69 107.82 357.69 107.37 357.69 106.92 357.61 106.92 357.61 106.88"/><rect class="a" x="368.72" y="106.88" width="0.74" height="0.9"/><rect class="a" x="380.57" y="106.88" width="0.74" height="0.9"/><rect class="a" x="392.42" y="106.88" width="0.45" height="0.9"/><rect class="a" x="0.01" y="71.12" width="0.45" height="0.9"/><rect class="a" x="23.43" y="71.12" width="0.74" height="0.9"/><rect class="a" x="11.57" y="71.12" width="0.74" height="0.9"/><polygon class="a" points="35.28 71.12 35.28 71.21 35.2 71.21 35.2 71.66 35.2 72.11 36.1 72.11 36.1 72.02 36.18 72.02 36.18 71.12 35.73 71.12 35.28 71.12"/><rect class="a" x="47.29" y="71.12" width="0.74" height="0.9"/><rect class="a" x="59.14" y="71.12" width="0.74" height="0.9"/><polygon class="a" points="70.99 71.12 70.99 71.21 70.95 71.21 70.95 71.66 70.95 72.11 71.85 72.11 71.85 72.02 71.89 72.02 71.89 71.12 71.44 71.12 70.99 71.12"/><rect class="a" x="83" y="71.12" width="0.74" height="0.9"/><rect class="a" x="94.86" y="71.12" width="0.74" height="0.9"/><polygon class="a" points="107.61 71.12 107.16 71.12 106.71 71.12 106.71 72.02 106.71 72.02 106.71 72.11 107.61 72.11 107.61 71.66 107.61 71.21 107.61 71.21 107.61 71.12"/><rect class="a" x="130.57" y="71.12" width="0.74" height="0.9"/><rect class="a" x="118.72" y="71.12" width="0.74" height="0.9"/><polygon class="a" points="143.32 71.12 142.87 71.12 142.42 71.12 142.42 72.02 142.47 72.02 142.47 72.11 143.37 72.11 143.37 71.66 143.37 71.21 143.32 71.21 143.32 71.12"/><rect class="a" x="154.43" y="71.12" width="0.74" height="0.9"/><rect class="a" x="166.28" y="71.12" width="0.74" height="0.9"/><polygon class="a" points="179.04 71.12 178.59 71.12 178.14 71.12 178.14 72.02 178.22 72.02 178.22 72.11 179.12 72.11 179.12 71.66 179.12 71.21 179.04 71.21 179.04 71.12"/><rect class="a" x="202" y="71.12" width="0.74" height="0.9"/><rect class="a" x="190.15" y="71.12" width="0.74" height="0.9"/><polygon class="a" points="213.85 71.12 213.85 71.21 213.77 71.21 213.77 71.66 213.77 72.11 214.67 72.11 214.67 72.02 214.75 72.02 214.75 71.12 214.3 71.12 213.85 71.12"/><rect class="a" x="237.71" y="71.12" width="0.74" height="0.9"/><rect class="a" x="225.86" y="71.12" width="0.74" height="0.9"/><polygon class="a" points="249.57 71.12 249.57 71.21 249.53 71.21 249.53 71.66 249.53 72.11 250.43 72.11 250.43 72.02 250.47 72.02 250.47 71.12 250.02 71.12 249.57 71.12"/><rect class="a" x="273.43" y="71.12" width="0.74" height="0.9"/><rect class="a" x="261.58" y="71.12" width="0.74" height="0.9"/><polygon class="a" points="285.28 71.12 285.28 71.21 285.28 71.66 285.28 72.02 285.28 72.11 286.18 72.11 286.18 72.02 286.18 71.66 286.18 71.21 286.18 71.12 285.73 71.12 285.28 71.12"/><rect class="a" x="309.14" y="71.12" width="0.74" height="0.9"/><rect class="a" x="297.29" y="71.12" width="0.74" height="0.9"/><polygon class="a" points="321.89 71.12 321.44 71.12 321 71.12 321 72.02 321.04 72.02 321.04 72.11 321.94 72.11 321.94 71.66 321.94 71.21 321.89 71.21 321.89 71.12"/><rect class="a" x="333.01" y="71.12" width="0.74" height="0.9"/><rect class="a" x="344.86" y="71.12" width="0.74" height="0.9"/><polygon class="a" points="357.61 71.12 357.16 71.12 356.71 71.12 356.71 72.02 356.79 72.02 356.79 72.11 357.69 72.11 357.69 71.66 357.69 71.21 357.61 71.21 357.61 71.12"/><rect class="a" x="368.72" y="71.12" width="0.74" height="0.9"/><rect class="a" x="380.57" y="71.12" width="0.74" height="0.9"/><rect class="a" x="392.42" y="71.12" width="0.45" height="0.9"/><rect class="a" x="0.01" y="35.37" width="0.45" height="0.9"/><rect class="a" x="11.57" y="35.37" width="0.74" height="0.9"/><rect class="a" x="23.43" y="35.37" width="0.74" height="0.9"/><polygon class="a" points="35.28 35.37 35.28 35.49 35.2 35.49 35.2 35.94 35.2 36.39 36.1 36.39 36.1 36.27 36.18 36.27 36.18 35.37 35.73 35.37 35.28 35.37"/><rect class="a" x="47.29" y="35.37" width="0.74" height="0.9"/><rect class="a" x="59.14" y="35.37" width="0.74" height="0.9"/><polygon class="a" points="70.99 35.37 70.99 35.49 70.95 35.49 70.95 35.94 70.95 36.39 71.85 36.39 71.85 36.27 71.89 36.27 71.89 35.37 71.44 35.37 70.99 35.37"/><rect class="a" x="94.86" y="35.37" width="0.74" height="0.9"/><rect class="a" x="83" y="35.37" width="0.74" height="0.9"/><polygon class="a" points="107.61 35.37 107.16 35.37 106.71 35.37 106.71 36.27 106.71 36.27 106.71 36.39 107.61 36.39 107.61 35.94 107.61 35.49 107.61 35.49 107.61 35.37"/><rect class="a" x="130.57" y="35.37" width="0.74" height="0.9"/><rect class="a" x="118.72" y="35.37" width="0.74" height="0.9"/><polygon class="a" points="143.32 35.37 142.87 35.37 142.42 35.37 142.42 36.27 142.47 36.27 142.47 36.39 143.37 36.39 143.37 35.94 143.37 35.49 143.32 35.49 143.32 35.37"/><rect class="a" x="166.28" y="35.37" width="0.74" height="0.9"/><rect class="a" x="154.43" y="35.37" width="0.74" height="0.9"/><polygon class="a" points="179.04 35.37 178.59 35.37 178.14 35.37 178.14 36.27 178.22 36.27 178.22 36.39 179.12 36.39 179.12 35.94 179.12 35.49 179.04 35.49 179.04 35.37"/><rect class="a" x="202" y="35.37" width="0.74" height="0.9"/><rect class="a" x="190.15" y="35.37" width="0.74" height="0.9"/><polygon class="a" points="213.85 35.37 213.85 35.49 213.77 35.49 213.77 35.94 213.77 36.39 214.67 36.39 214.67 36.27 214.75 36.27 214.75 35.37 214.3 35.37 213.85 35.37"/><rect class="a" x="237.71" y="35.37" width="0.74" height="0.9"/><rect class="a" x="225.86" y="35.37" width="0.74" height="0.9"/><polygon class="a" points="249.57 35.37 249.57 35.49 249.53 35.49 249.53 35.94 249.53 36.39 250.43 36.39 250.43 36.27 250.47 36.27 250.47 35.37 250.02 35.37 249.57 35.37"/><rect class="a" x="273.43" y="35.37" width="0.74" height="0.9"/><rect class="a" x="261.58" y="35.37" width="0.74" height="0.9"/><polygon class="a" points="285.28 35.37 285.28 35.49 285.28 35.94 285.28 36.27 285.28 36.39 286.18 36.39 286.18 36.27 286.18 35.94 286.18 35.49 286.18 35.37 285.73 35.37 285.28 35.37"/><rect class="a" x="297.29" y="35.37" width="0.74" height="0.9"/><rect class="a" x="309.14" y="35.37" width="0.74" height="0.9"/><polygon class="a" points="321.89 35.37 321.44 35.37 321 35.37 321 36.27 321.04 36.27 321.04 36.39 321.94 36.39 321.94 35.94 321.94 35.49 321.89 35.49 321.89 35.37"/><rect class="a" x="344.86" y="35.37" width="0.74" height="0.9"/><rect class="a" x="333.01" y="35.37" width="0.74" height="0.9"/><polygon class="a" points="357.61 35.37 357.16 35.37 356.71 35.37 356.71 36.27 356.79 36.27 356.79 36.39 357.69 36.39 357.69 35.94 357.69 35.49 357.61 35.49 357.61 35.37"/><rect class="a" x="368.72" y="35.37" width="0.74" height="0.9"/><rect class="a" x="380.57" y="35.37" width="0.74" height="0.9"/><rect class="a" x="392.42" y="35.37" width="0.45" height="0.9"/><rect class="a" x="0.01" y="142.64" width="0.45" height="0.9"/><rect class="a" x="11.57" y="142.64" width="0.74" height="0.9"/><rect class="a" x="23.43" y="142.64" width="0.74" height="0.9"/><polygon class="a" points="35.28 142.63 35.28 142.64 35.2 142.64 35.2 143.09 35.2 143.54 36.1 143.54 36.1 143.53 36.18 143.53 36.18 142.63 35.73 142.63 35.28 142.63"/><rect class="a" x="59.14" y="142.64" width="0.74" height="0.9"/><rect class="a" x="47.29" y="142.64" width="0.74" height="0.9"/><polygon class="a" points="70.99 142.63 70.99 142.64 70.95 142.64 70.95 143.09 70.95 143.54 71.85 143.54 71.85 143.53 71.89 143.53 71.89 142.63 71.44 142.63 70.99 142.63"/><rect class="a" x="94.86" y="142.64" width="0.74" height="0.9"/><rect class="a" x="83" y="142.64" width="0.74" height="0.9"/><polygon class="a" points="107.61 142.63 107.16 142.63 106.71 142.63 106.71 143.53 106.71 143.53 106.71 143.54 107.61 143.54 107.61 143.09 107.61 142.64 107.61 142.64 107.61 142.63"/><rect class="a" x="118.72" y="142.64" width="0.74" height="0.9"/><rect class="a" x="130.57" y="142.64" width="0.74" height="0.9"/><polygon class="a" points="143.32 142.63 142.87 142.63 142.42 142.63 142.42 143.53 142.47 143.53 142.47 143.54 143.37 143.54 143.37 143.09 143.37 142.64 143.32 142.64 143.32 142.63"/><rect class="a" x="166.28" y="142.64" width="0.74" height="0.9"/><rect class="a" x="154.43" y="142.64" width="0.74" height="0.9"/><polygon class="a" points="179.04 142.63 178.59 142.63 178.14 142.63 178.14 143.53 178.22 143.53 178.22 143.54 179.12 143.54 179.12 143.09 179.12 142.64 179.04 142.64 179.04 142.63"/><rect class="a" x="202" y="142.64" width="0.74" height="0.9"/><rect class="a" x="190.15" y="142.64" width="0.74" height="0.9"/><polygon class="a" points="213.85 142.63 213.85 142.64 213.77 142.64 213.77 143.09 213.77 143.54 214.67 143.54 214.67 143.53 214.75 143.53 214.75 142.63 214.3 142.63 213.85 142.63"/><rect class="a" x="237.71" y="142.64" width="0.74" height="0.9"/><rect class="a" x="225.86" y="142.64" width="0.74" height="0.9"/><polygon class="a" points="249.57 142.63 249.57 142.64 249.53 142.64 249.53 143.09 249.53 143.54 250.43 143.54 250.43 143.53 250.47 143.53 250.47 142.63 250.02 142.63 249.57 142.63"/><rect class="a" x="261.58" y="142.64" width="0.74" height="0.9"/><rect class="a" x="273.43" y="142.64" width="0.74" height="0.9"/><polygon class="a" points="285.28 142.63 285.28 142.64 285.28 143.09 285.28 143.53 285.28 143.54 286.18 143.54 286.18 143.53 286.18 143.09 286.18 142.64 286.18 142.63 285.73 142.63 285.28 142.63"/><rect class="a" x="297.29" y="142.64" width="0.74" height="0.9"/><rect class="a" x="309.14" y="142.64" width="0.74" height="0.9"/><polygon class="a" points="321.89 142.63 321.44 142.63 321 142.63 321 143.53 321.04 143.53 321.04 143.54 321.94 143.54 321.94 143.09 321.94 142.64 321.89 142.64 321.89 142.63"/><rect class="a" x="344.86" y="142.64" width="0.74" height="0.9"/><rect class="a" x="333.01" y="142.64" width="0.74" height="0.9"/><polygon class="a" points="357.61 142.63 357.16 142.63 356.71 142.63 356.71 143.53 356.79 143.53 356.79 143.54 357.69 143.54 357.69 143.09 357.69 142.64 357.61 142.64 357.61 142.63"/><rect class="a" x="380.57" y="142.64" width="0.74" height="0.9"/><rect class="a" x="368.72" y="142.64" width="0.74" height="0.9"/><rect class="a" x="392.42" y="142.64" width="0.45" height="0.9"/><rect class="a" x="0.01" y="178.39" width="0.45" height="0.9"/><rect class="a" x="23.43" y="178.39" width="0.74" height="0.9"/><rect class="a" x="11.57" y="178.39" width="0.74" height="0.9"/><rect class="a" x="59.14" y="178.39" width="0.74" height="0.9"/><rect class="a" x="47.29" y="178.39" width="0.74" height="0.9"/><rect class="a" x="83" y="178.39" width="0.74" height="0.9"/><rect class="a" x="94.86" y="178.39" width="0.74" height="0.9"/><rect class="a" x="130.57" y="178.39" width="0.74" height="0.9"/><rect class="a" x="118.72" y="178.39" width="0.74" height="0.9"/><rect class="a" x="166.28" y="178.39" width="0.74" height="0.9"/><rect class="a" x="154.43" y="178.39" width="0.74" height="0.9"/><rect class="a" x="190.15" y="178.39" width="0.74" height="0.9"/><rect class="a" x="202" y="178.39" width="0.74" height="0.9"/><rect class="a" x="225.86" y="178.39" width="0.74" height="0.9"/><rect class="a" x="237.71" y="178.39" width="0.74" height="0.9"/><rect class="a" x="273.43" y="178.39" width="0.74" height="0.9"/><rect class="a" x="261.58" y="178.39" width="0.74" height="0.9"/><rect class="a" x="297.29" y="178.39" width="0.74" height="0.9"/><rect class="a" x="309.14" y="178.39" width="0.74" height="0.9"/><rect class="a" x="344.86" y="178.39" width="0.74" height="0.9"/><rect class="a" x="333.01" y="178.39" width="0.74" height="0.9"/><rect class="a" x="380.57" y="178.39" width="0.74" height="0.9"/><rect class="a" x="368.72" y="178.39" width="0.74" height="0.9"/><rect class="a" x="106.71" y="0.23" width="0.9" height="0.45"/><rect class="a" x="106.71" y="23.64" width="0.9" height="0.74"/><rect class="a" x="106.71" y="11.79" width="0.9" height="0.74"/><rect class="a" x="106.71" y="59.36" width="0.9" height="0.74"/><rect class="a" x="106.71" y="47.5" width="0.9" height="0.74"/><rect class="a" x="106.71" y="83.22" width="0.9" height="0.74"/><rect class="a" x="106.71" y="95.07" width="0.9" height="0.74"/><rect class="a" x="106.71" y="118.93" width="0.9" height="0.74"/><rect class="a" x="106.71" y="130.79" width="0.9" height="0.74"/><rect class="a" x="106.71" y="166.5" width="0.9" height="0.74"/><rect class="a" x="106.71" y="154.65" width="0.9" height="0.74"/><polygon class="a" points="106.71 178.39 106.71 178.39 106.71 179.29 107.16 179.29 107.61 179.29 107.61 179.25 107.61 179.25 107.61 178.8 107.61 178.35 106.71 178.35 106.71 178.39"/><rect class="a" x="106.71" y="202.22" width="0.9" height="0.74"/><rect class="a" x="106.71" y="190.36" width="0.9" height="0.74"/><rect class="a" x="106.71" y="214.07" width="0.9" height="0.45"/><rect class="a" x="70.95" y="0.23" width="0.9" height="0.45"/><rect class="a" x="70.95" y="11.79" width="0.9" height="0.74"/><rect class="a" x="70.95" y="23.64" width="0.9" height="0.74"/><rect class="a" x="70.95" y="47.5" width="0.9" height="0.74"/><rect class="a" x="70.95" y="59.36" width="0.9" height="0.74"/><rect class="a" x="70.95" y="83.22" width="0.9" height="0.74"/><rect class="a" x="70.95" y="95.07" width="0.9" height="0.74"/><rect class="a" x="70.95" y="130.79" width="0.9" height="0.74"/><rect class="a" x="70.95" y="118.93" width="0.9" height="0.74"/><rect class="a" x="70.95" y="154.65" width="0.9" height="0.74"/><rect class="a" x="70.95" y="166.5" width="0.9" height="0.74"/><polygon class="a" points="71.85 178.35 70.95 178.35 70.95 178.8 70.95 179.25 70.99 179.25 70.99 179.29 71.44 179.29 71.89 179.29 71.89 178.39 71.85 178.39 71.85 178.35"/><rect class="a" x="70.95" y="190.36" width="0.9" height="0.74"/><rect class="a" x="70.95" y="202.22" width="0.9" height="0.74"/><rect class="a" x="70.95" y="214.07" width="0.9" height="0.45"/><rect class="a" x="35.2" y="0.23" width="0.9" height="0.45"/><rect class="a" x="35.2" y="11.79" width="0.9" height="0.74"/><rect class="a" x="35.2" y="23.64" width="0.9" height="0.74"/><rect class="a" x="35.2" y="47.5" width="0.9" height="0.74"/><rect class="a" x="35.2" y="59.36" width="0.9" height="0.74"/><rect class="a" x="35.2" y="83.22" width="0.9" height="0.74"/><rect class="a" x="35.2" y="95.07" width="0.9" height="0.74"/><rect class="a" x="35.2" y="118.93" width="0.9" height="0.74"/><rect class="a" x="35.2" y="130.79" width="0.9" height="0.74"/><rect class="a" x="35.2" y="154.65" width="0.9" height="0.74"/><rect class="a" x="35.2" y="166.5" width="0.9" height="0.74"/><polygon class="a" points="36.1 178.35 35.2 178.35 35.2 178.8 35.2 179.25 35.28 179.25 35.28 179.29 35.73 179.29 36.18 179.29 36.18 178.39 36.1 178.39 36.1 178.35"/><rect class="a" x="35.2" y="190.36" width="0.9" height="0.74"/><rect class="a" x="35.2" y="202.22" width="0.9" height="0.74"/><rect class="a" x="35.2" y="214.07" width="0.9" height="0.45"/><rect class="a" x="142.47" y="0.23" width="0.9" height="0.45"/><rect class="a" x="142.47" y="11.79" width="0.9" height="0.74"/><rect class="a" x="142.47" y="23.64" width="0.9" height="0.74"/><rect class="a" x="142.47" y="47.5" width="0.9" height="0.74"/><rect class="a" x="142.47" y="59.36" width="0.9" height="0.74"/><rect class="a" x="142.47" y="95.07" width="0.9" height="0.74"/><rect class="a" x="142.47" y="83.22" width="0.9" height="0.74"/><rect class="a" x="142.47" y="118.93" width="0.9" height="0.74"/><rect class="a" x="142.47" y="130.79" width="0.9" height="0.74"/><rect class="a" x="142.47" y="166.5" width="0.9" height="0.74"/><rect class="a" x="142.47" y="154.65" width="0.9" height="0.74"/><polygon class="a" points="142.47 178.39 142.42 178.39 142.42 179.29 142.87 179.29 143.32 179.29 143.32 179.25 143.37 179.25 143.37 178.8 143.37 178.35 142.47 178.35 142.47 178.39"/><rect class="a" x="142.47" y="202.22" width="0.9" height="0.74"/><rect class="a" x="142.47" y="190.36" width="0.9" height="0.74"/><rect class="a" x="142.47" y="214.07" width="0.9" height="0.45"/><rect class="a" x="178.22" y="0.23" width="0.9" height="0.45"/><rect class="a" x="178.22" y="23.64" width="0.9" height="0.74"/><rect class="a" x="178.22" y="11.79" width="0.9" height="0.74"/><rect class="a" x="178.22" y="47.5" width="0.9" height="0.74"/><rect class="a" x="178.22" y="59.36" width="0.9" height="0.74"/><rect class="a" x="178.22" y="83.22" width="0.9" height="0.74"/><rect class="a" x="178.22" y="95.07" width="0.9" height="0.74"/><rect class="a" x="178.22" y="130.79" width="0.9" height="0.74"/><rect class="a" x="178.22" y="118.93" width="0.9" height="0.74"/><rect class="a" x="178.22" y="166.5" width="0.9" height="0.74"/><rect class="a" x="178.22" y="154.65" width="0.9" height="0.74"/><polygon class="a" points="178.22 178.39 178.14 178.39 178.14 179.29 178.59 179.29 179.04 179.29 179.04 179.25 179.12 179.25 179.12 178.8 179.12 178.35 178.22 178.35 178.22 178.39"/><rect class="a" x="178.22" y="202.22" width="0.9" height="0.74"/><rect class="a" x="178.22" y="190.36" width="0.9" height="0.74"/><rect class="a" x="178.22" y="214.07" width="0.9" height="0.45"/><rect class="a" x="285.28" y="0.23" width="0.9" height="0.45"/><rect class="a" x="285.28" y="11.79" width="0.9" height="0.74"/><rect class="a" x="285.28" y="23.64" width="0.9" height="0.74"/><rect class="a" x="285.28" y="47.5" width="0.9" height="0.74"/><rect class="a" x="285.28" y="59.36" width="0.9" height="0.74"/><rect class="a" x="285.28" y="95.07" width="0.9" height="0.74"/><rect class="a" x="285.28" y="83.22" width="0.9" height="0.74"/><rect class="a" x="285.28" y="130.79" width="0.9" height="0.74"/><rect class="a" x="285.28" y="118.93" width="0.9" height="0.74"/><rect class="a" x="285.28" y="166.5" width="0.9" height="0.74"/><rect class="a" x="285.28" y="154.65" width="0.9" height="0.74"/><polygon class="a" points="285.28 178.39 285.28 178.8 285.28 179.25 285.28 179.29 285.73 179.29 286.18 179.29 286.18 179.25 286.18 178.8 286.18 178.39 286.18 178.35 285.28 178.35 285.28 178.39"/><rect class="a" x="285.28" y="202.22" width="0.9" height="0.74"/><rect class="a" x="285.28" y="190.36" width="0.9" height="0.74"/><rect class="a" x="285.28" y="214.07" width="0.9" height="0.45"/><rect class="a" x="321.04" y="0.23" width="0.9" height="0.45"/><rect class="a" x="321.04" y="23.64" width="0.9" height="0.74"/><rect class="a" x="321.04" y="11.79" width="0.9" height="0.74"/><rect class="a" x="321.04" y="47.5" width="0.9" height="0.74"/><rect class="a" x="321.04" y="59.36" width="0.9" height="0.74"/><rect class="a" x="321.04" y="95.07" width="0.9" height="0.74"/><rect class="a" x="321.04" y="83.22" width="0.9" height="0.74"/><rect class="a" x="321.04" y="130.79" width="0.9" height="0.74"/><rect class="a" x="321.04" y="118.93" width="0.9" height="0.74"/><rect class="a" x="321.04" y="154.65" width="0.9" height="0.74"/><rect class="a" x="321.04" y="166.5" width="0.9" height="0.74"/><polygon class="a" points="321.04 178.39 321 178.39 321 179.29 321.44 179.29 321.89 179.29 321.89 179.25 321.94 179.25 321.94 178.8 321.94 178.35 321.04 178.35 321.04 178.39"/><rect class="a" x="321.04" y="202.22" width="0.9" height="0.74"/><rect class="a" x="321.04" y="190.36" width="0.9" height="0.74"/><rect class="a" x="321.04" y="214.07" width="0.9" height="0.45"/><rect class="a" x="356.79" y="0.23" width="0.9" height="0.45"/><rect class="a" x="356.79" y="23.64" width="0.9" height="0.74"/><rect class="a" x="356.79" y="11.79" width="0.9" height="0.74"/><rect class="a" x="356.79" y="59.36" width="0.9" height="0.74"/><rect class="a" x="356.79" y="47.5" width="0.9" height="0.74"/><rect class="a" x="356.79" y="95.07" width="0.9" height="0.74"/><rect class="a" x="356.79" y="83.22" width="0.9" height="0.74"/><rect class="a" x="356.79" y="130.79" width="0.9" height="0.74"/><rect class="a" x="356.79" y="118.93" width="0.9" height="0.74"/><rect class="a" x="356.79" y="154.65" width="0.9" height="0.74"/><rect class="a" x="356.79" y="166.5" width="0.9" height="0.74"/><polygon class="a" points="356.79 178.39 356.71 178.39 356.71 179.29 357.16 179.29 357.61 179.29 357.61 179.25 357.69 179.25 357.69 178.8 357.69 178.35 356.79 178.35 356.79 178.39"/><rect class="a" x="356.79" y="202.22" width="0.9" height="0.74"/><rect class="a" x="356.79" y="190.36" width="0.9" height="0.74"/><rect class="a" x="356.79" y="214.07" width="0.9" height="0.45"/><rect class="a" x="249.53" y="0.23" width="0.9" height="0.45"/><rect class="a" x="249.53" y="11.79" width="0.9" height="0.74"/><rect class="a" x="249.53" y="23.64" width="0.9" height="0.74"/><rect class="a" x="249.53" y="47.5" width="0.9" height="0.74"/><rect class="a" x="249.53" y="59.36" width="0.9" height="0.74"/><rect class="a" x="249.53" y="83.22" width="0.9" height="0.74"/><rect class="a" x="249.53" y="95.07" width="0.9" height="0.74"/><rect class="a" x="249.53" y="118.93" width="0.9" height="0.74"/><rect class="a" x="249.53" y="130.79" width="0.9" height="0.74"/><rect class="a" x="249.53" y="166.5" width="0.9" height="0.74"/><rect class="a" x="249.53" y="154.65" width="0.9" height="0.74"/><polygon class="a" points="250.43 178.35 249.53 178.35 249.53 178.8 249.53 179.25 249.57 179.25 249.57 179.29 250.02 179.29 250.47 179.29 250.47 178.39 250.43 178.39 250.43 178.35"/><rect class="a" x="249.53" y="190.36" width="0.9" height="0.74"/><rect class="a" x="249.53" y="202.22" width="0.9" height="0.74"/><rect class="a" x="249.53" y="214.07" width="0.9" height="0.45"/><rect class="a" x="213.77" y="0.23" width="0.9" height="0.45"/><rect class="a" x="213.77" y="11.79" width="0.9" height="0.74"/><rect class="a" x="213.77" y="23.64" width="0.9" height="0.74"/><rect class="a" x="213.77" y="47.5" width="0.9" height="0.74"/><rect class="a" x="213.77" y="59.36" width="0.9" height="0.74"/><rect class="a" x="213.77" y="95.07" width="0.9" height="0.74"/><rect class="a" x="213.77" y="83.22" width="0.9" height="0.74"/><rect class="a" x="213.77" y="130.79" width="0.9" height="0.74"/><rect class="a" x="213.77" y="118.93" width="0.9" height="0.74"/><rect class="a" x="213.77" y="166.5" width="0.9" height="0.74"/><rect class="a" x="213.77" y="154.65" width="0.9" height="0.74"/><polygon class="a" points="214.67 178.35 213.77 178.35 213.77 178.8 213.77 179.25 213.85 179.25 213.85 179.29 214.3 179.29 214.75 179.29 214.75 178.39 214.67 178.39 214.67 178.35"/><rect class="a" x="213.77" y="190.36" width="0.9" height="0.74"/><rect class="a" x="213.77" y="202.22" width="0.9" height="0.74"/><rect class="a" x="213.77" y="214.07" width="0.9" height="0.45"/></svg>