<?xml version="1.0" encoding="utf-8"?>
<!-- Generator: Adobe Illustrator 24.0.1, SVG Export Plug-In . SVG Version: 6.00 Build 0)  -->
<svg version="1.1" id="Layer_1" xmlns="http://www.w3.org/2000/svg" xmlns:xlink="http://www.w3.org/1999/xlink" x="0px" y="0px"
	 viewBox="0 0 18.6 16.7" style="enable-background:new 0 0 18.6 16.7;" xml:space="preserve">
<style type="text/css">
	.st0{fill:#F46A24;}
</style>
<title>_</title>
<g>
	<path class="st0" d="M13.3,8.3h-5v-5c0-1.1-0.9-2-2-2h-4c-1.1,0-2,0.9-2,2v8c0,1.1,0.9,2,2,2h1v1c0,1.1,0.9,2,2,2h8
		c1.1,0,2-0.9,2-2v-4C15.3,9.2,14.4,8.3,13.3,8.3z M2.3,12.3c-0.6,0-1-0.4-1-1v-8c0-0.6,0.4-1,1-1h4c0.6,0,1,0.4,1,1v5h-2
		c-1.1,0-2,0.9-2,2v2H2.3z M7.3,9.3v2c0,0.6-0.4,1-1,1h-2v-2c0-0.6,0.4-1,1-1H7.3z M14.3,14.3c0,0.6-0.4,1-1,1h-8c-0.6,0-1-0.4-1-1
		v-1h2c1.1,0,2-0.9,2-2v-2h5c0.6,0,1,0.4,1,1V14.3z M18.2,5.1l-2,2c-0.2,0.2-0.5,0.2-0.7,0l-2.1-2.1c-0.2-0.2-0.2-0.5,0-0.7
		c0.2-0.2,0.5-0.2,0.7,0l1.2,1.2c-0.1-2.5-2.2-4.4-4.7-4.3c-0.2,0-0.5,0-0.7,0.1C9.6,1.4,9.4,1.2,9.3,1C9.3,0.7,9.4,0.4,9.7,0.4
		c0,0,0,0,0,0c3-0.6,5.9,1.3,6.5,4.3c0.1,0.3,0.1,0.6,0.1,0.9l1.2-1.2c0.2-0.2,0.5-0.2,0.7,0C18.4,4.6,18.4,4.9,18.2,5.1L18.2,5.1z"
		/>
</g>
</svg>
