<svg xmlns="http://www.w3.org/2000/svg" viewBox="0 0 222.74 697.05"><defs><style>.a{fill:#363636;}</style></defs><title>sole-grey</title><path class="a" d="M126.84,0c77.36,0,93.62,113.63,95.66,176.42V-.38H.24v202.6C4.21,147.15,60.84,0,126.84,0Z"/><path class="a" d="M221.84,214.06c-6.12,53.82-37.86,89.84-38,174.07-.07,35,10.25,178.29,6.67,217.14.45,9.37-8.34,91.78-89,91.78H222.5V204.17C222.33,208.5,222.09,211.87,221.84,214.06Z"/><path class="a" d="M21.35,609.1c-1.63-62.42,15.09-143.19.32-230.23-11-65-19.89-97.46-21.43-149.9V697.05H101.45C48.23,697.05,22,634.82,21.35,609.1Z"/></svg>